<svg width="27" height="16" viewBox="0 0 27 16" fill="none" xmlns="http://www.w3.org/2000/svg">
<path d="M4.60794 1.28958L13.4996 10.1812L22.3913 1.28958C22.6034 1.07741 22.8553 0.90911 23.1325 0.794286C23.4097 0.679462 23.7069 0.620361 24.0069 0.620361C24.3069 0.620361 24.6041 0.679462 24.8813 0.794286C25.1585 0.90911 25.4104 1.07741 25.6225 1.28958C25.8347 1.50174 26.003 1.75362 26.1178 2.03083C26.2326 2.30804 26.2917 2.60515 26.2917 2.9052C26.2917 3.20525 26.2326 3.50236 26.1178 3.77957C26.003 4.05678 25.8347 4.30866 25.6225 4.52083L15.1038 15.0396C14.8918 15.252 14.6399 15.4206 14.3627 15.5356C14.0855 15.6506 13.7883 15.7098 13.4882 15.7098C13.188 15.7098 12.8908 15.6506 12.6136 15.5356C12.3364 15.4206 12.0845 15.252 11.8725 15.0396L1.35378 4.52083C1.14133 4.30882 0.972785 4.05699 0.857786 3.77976C0.742787 3.50253 0.683594 3.20534 0.683594 2.9052C0.683594 2.60506 0.742787 2.30788 0.857786 2.03065C0.972785 1.75341 1.14133 1.50159 1.35378 1.28958C2.24753 0.418742 3.71419 0.395826 4.60794 1.28958Z" fill="white"/>
</svg>
